<svg viewBox="0 0 818 143" fill="none" xmlns="http://www.w3.org/2000/svg">
<g clip-path="url(#clip0_1558_724)">
<path d="M784.116 83.9127L785.167 84.6134C784.524 85.7229 784.057 87.0368 783.765 88.555C783.532 90.0149 783.444 91.504 783.503 93.0222C783.561 94.5405 783.765 95.9711 784.116 97.3142C784.466 98.6573 784.904 99.7376 785.43 100.555C786.714 102.541 788.525 103.971 790.86 104.847C793.254 105.723 795.765 106.161 798.393 106.161C799.97 106.161 801.459 106.015 802.86 105.723C804.32 105.373 805.605 104.847 806.714 104.146C807.824 103.387 808.7 102.424 809.342 101.256C810.043 100.088 810.422 98.6573 810.481 96.9638C810.539 94.7449 809.868 92.9346 808.466 91.5332C807.123 90.0733 805.401 88.847 803.298 87.8543C801.255 86.8616 799.006 85.9857 796.554 85.2266C794.101 84.409 791.824 83.5039 789.722 82.5112C787.678 81.5185 785.955 80.3214 784.554 78.92C783.211 77.4601 782.568 75.6207 782.627 73.4017C782.627 71.1827 783.152 69.3433 784.203 67.8834C785.254 66.4235 786.598 65.2848 788.233 64.4673C789.926 63.5914 791.765 63.0075 793.751 62.7155C795.795 62.3651 797.809 62.1899 799.795 62.1899C801.313 62.1899 802.86 62.3651 804.437 62.7155C806.014 63.0659 807.474 63.5914 808.817 64.2921C810.218 64.9345 811.444 65.7812 812.495 66.8323C813.547 67.825 814.306 69.0221 814.773 70.4236L808.466 74.9783L807.766 74.0148C808.349 73.5477 808.846 73.0221 809.255 72.4382C809.663 71.8542 809.868 71.1827 809.868 70.4236C809.868 69.3725 809.605 68.4382 809.079 67.6206C808.612 66.7447 807.911 66.0148 806.977 65.4308C806.101 64.8469 805.079 64.4089 803.911 64.117C802.744 63.7666 801.517 63.5914 800.233 63.5914C798.948 63.5914 797.663 63.7374 796.379 64.0294C795.094 64.3213 793.926 64.7885 792.875 65.4308C791.882 66.0732 791.065 66.8907 790.422 67.8834C789.838 68.8761 789.605 70.0732 789.722 71.4747C789.838 73.1097 790.598 74.4528 791.999 75.5039C793.4 76.555 795.123 77.5185 797.167 78.3944C799.211 79.2119 801.401 80.0295 803.736 80.847C806.072 81.6645 808.233 82.6572 810.218 83.8251C812.203 84.9346 813.839 86.3069 815.123 87.9419C816.466 89.5186 817.138 91.5332 817.138 93.9857C817.138 96.4383 816.583 98.5405 815.474 100.292C814.422 102.044 813.021 103.475 811.269 104.584C809.576 105.694 807.649 106.511 805.488 107.037C803.328 107.562 801.109 107.825 798.831 107.825C793.4 107.825 788.933 106.599 785.43 104.146C781.926 101.635 779.678 98.0733 778.685 93.4602L784.116 83.9127Z" fill="#00D3F2"/>
<path d="M743.309 63.0658H750.404V78.3067C750.871 76.0877 751.484 73.9855 752.243 72.0001C753.003 70.0147 753.937 68.2921 755.046 66.8322C756.156 65.3139 757.47 64.146 758.988 63.3285C760.565 62.4526 762.346 62.0146 764.331 62.0146C766.784 62.0146 769.003 62.511 770.988 63.5037C773.032 64.438 774.725 65.7519 776.068 67.4453L771.601 79.0074L770.462 78.3943C770.813 77.0512 770.988 75.679 770.988 74.2775C770.988 72.9928 770.813 71.7081 770.462 70.4235C770.171 69.1388 769.703 68.0001 769.061 67.0074C768.419 66.0147 767.572 65.2263 766.521 64.6424C765.47 64.0001 764.214 63.7373 762.754 63.8541C761.003 63.9125 759.484 64.6424 758.2 66.0439C756.915 67.4453 755.805 69.2556 754.871 71.4746C753.995 73.6935 753.265 76.1753 752.681 78.9198C752.156 81.6644 751.718 84.4673 751.368 87.3286C751.017 90.19 750.784 92.9637 750.667 95.6499C750.55 98.2776 750.462 100.613 750.404 102.657V106.862H743.397L743.309 63.0658Z" fill="#00D3F2"/>
<path d="M703.056 68.7592C705.976 66.5402 708.983 64.876 712.078 63.7665C715.231 62.5986 718.647 62.0146 722.326 62.0146C723.903 62.0146 725.509 62.1898 727.144 62.5402C728.837 62.8322 730.355 63.3869 731.698 64.2044C733.1 64.9636 734.209 65.9855 735.027 67.2701C735.903 68.5548 736.341 70.1607 736.341 72.0877V72.6132V106.949H729.246V96.9637C727.844 100.292 725.771 102.949 723.027 104.935C720.282 106.862 716.72 107.825 712.341 107.825C710.355 107.825 708.399 107.533 706.472 106.949C704.545 106.365 702.822 105.519 701.304 104.409C699.844 103.3 698.647 101.927 697.713 100.292C696.837 98.5988 696.399 96.6718 696.399 94.5112C696.399 92.117 696.866 90.1024 697.8 88.4673C698.735 86.8323 699.961 85.4892 701.479 84.4381C702.998 83.3286 704.749 82.4819 706.735 81.898C708.72 81.2556 710.764 80.7593 712.866 80.4089C714.968 80.0585 717.041 79.825 719.085 79.7082C721.129 79.533 722.998 79.387 724.691 79.2702C725.742 79.1534 726.852 79.0074 728.02 78.8323C729.246 78.5987 730.326 78.2483 731.26 77.7812C732.253 77.314 733.071 76.6717 733.713 75.8541C734.355 74.9782 734.676 73.8395 734.676 72.4381C734.676 71.1534 734.385 70.0439 733.801 69.1096C733.275 68.1169 732.545 67.3285 731.611 66.7446C730.735 66.1023 729.713 65.6351 728.545 65.3431C727.377 64.9928 726.209 64.8176 725.041 64.8176C721.363 64.8176 718.092 65.6935 715.231 67.4453C712.37 69.1972 709.888 71.5037 707.786 74.3651L703.056 68.7592ZM729.158 80.2337C727.231 80.7009 725.187 80.9928 723.027 81.1096C720.925 81.168 719.027 81.314 717.333 81.5476C715.465 81.7812 713.713 82.2191 712.078 82.8615C710.443 83.4454 709.012 84.2629 707.786 85.314C706.56 86.3651 705.596 87.679 704.895 89.2557C704.195 90.7739 703.844 92.555 703.844 94.5988C703.844 97.7521 704.779 100.38 706.647 102.482C708.574 104.584 711.144 105.635 714.355 105.635C716.574 105.635 718.501 105.285 720.136 104.584C721.771 103.825 723.173 102.803 724.341 101.519C725.509 100.234 726.472 98.774 727.231 97.1389C728.049 95.4455 728.72 93.6936 729.246 91.8834L729.158 80.2337Z" fill="#00D3F2"/>
<path d="M662.676 63.2411C664.486 63.2411 666.092 62.5987 667.493 61.3141C668.895 60.0294 670.063 58.4527 670.997 56.5841C671.99 54.7155 672.72 52.7593 673.187 50.7155C673.712 48.6717 673.975 46.9198 673.975 45.46L675.727 45.5476V93.723C675.727 95.1245 675.844 96.5551 676.077 98.015C676.311 99.4164 676.749 100.73 677.391 101.957C678.034 103.124 678.88 104.088 679.931 104.847C681.041 105.606 682.472 106.015 684.223 106.073C685.391 106.132 686.588 105.986 687.815 105.635C689.041 105.227 690.18 104.701 691.231 104.059C692.282 103.416 693.187 102.657 693.946 101.781C694.764 100.847 695.289 99.8544 695.523 98.8033L696.486 100.818C694.734 103.446 692.778 105.256 690.618 106.249C688.457 107.241 685.712 107.708 682.384 107.65C680.282 107.65 678.384 107.3 676.69 106.599C674.997 105.84 673.537 104.847 672.311 103.621C671.143 102.336 670.238 100.818 669.596 99.0661C668.953 97.3142 668.632 95.4164 668.632 93.3726V64.7301H662.676V63.2411ZM669.946 63.0659H688.953V64.7301H669.946V63.0659Z" fill="#00D3F2"/>
<path d="M624.787 68.7592C627.707 66.5402 630.714 64.876 633.809 63.7665C636.963 62.5986 640.379 62.0146 644.058 62.0146C645.634 62.0146 647.24 62.1898 648.875 62.5402C650.569 62.8322 652.087 63.3869 653.43 64.2044C654.831 64.9636 655.941 65.9855 656.758 67.2701C657.634 68.5548 658.072 70.1607 658.072 72.0877V72.6132V106.949H650.977V96.9637C649.576 100.292 647.503 102.949 644.758 104.935C642.014 106.862 638.452 107.825 634.072 107.825C632.087 107.825 630.13 107.533 628.203 106.949C626.276 106.365 624.554 105.519 623.036 104.409C621.576 103.3 620.379 101.927 619.444 100.292C618.568 98.5988 618.13 96.6718 618.13 94.5112C618.13 92.117 618.598 90.1024 619.532 88.4673C620.466 86.8323 621.692 85.4892 623.211 84.4381C624.729 83.3286 626.481 82.4819 628.466 81.898C630.452 81.2556 632.495 80.7593 634.598 80.4089C636.7 80.0585 638.773 79.825 640.817 79.7082C642.86 79.533 644.729 79.387 646.422 79.2702C647.474 79.1534 648.583 79.0074 649.751 78.8323C650.977 78.5987 652.058 78.2483 652.992 77.7812C653.985 77.314 654.802 76.6717 655.444 75.8541C656.087 74.9782 656.408 73.8395 656.408 72.4381C656.408 71.1534 656.116 70.0439 655.532 69.1096C655.006 68.1169 654.277 67.3285 653.342 66.7446C652.466 66.1023 651.444 65.6351 650.277 65.3431C649.109 64.9928 647.941 64.8176 646.773 64.8176C643.094 64.8176 639.824 65.6935 636.963 67.4453C634.101 69.1972 631.619 71.5037 629.517 74.3651L624.787 68.7592ZM650.89 80.2337C648.963 80.7009 646.919 80.9928 644.758 81.1096C642.656 81.168 640.758 81.314 639.065 81.5476C637.196 81.7812 635.444 82.2191 633.809 82.8615C632.174 83.4454 630.744 84.2629 629.517 85.314C628.291 86.3651 627.327 87.679 626.627 89.2557C625.926 90.7739 625.576 92.555 625.576 94.5988C625.576 97.7521 626.51 100.38 628.379 102.482C630.306 104.584 632.875 105.635 636.087 105.635C638.306 105.635 640.233 105.285 641.868 104.584C643.503 103.825 644.904 102.803 646.072 101.519C647.24 100.234 648.204 98.774 648.963 97.1389C649.78 95.4455 650.452 93.6936 650.977 91.8834L650.89 80.2337Z" fill="#00D3F2"/>
<path d="M592.196 106.861L574.677 63.0654H581.772L599.291 106.861H592.196ZM616.371 63.0654C616.896 63.0654 617.276 63.2406 617.51 63.591C617.802 63.9413 617.948 64.3501 617.948 64.8173C617.948 65.2844 617.86 65.9851 617.685 66.9195C617.51 67.8538 617.276 68.8465 616.984 69.8976C616.75 70.9487 616.488 71.9414 616.196 72.8757C615.904 73.81 615.67 74.5107 615.495 74.9779C614.794 76.7881 613.889 78.8903 612.78 81.2845C611.729 83.6203 610.531 86.1312 609.188 88.8174C607.904 91.4451 606.473 94.2189 604.896 97.1386C603.32 99.9999 601.685 102.832 599.991 105.635C599.874 105.869 599.758 106.073 599.641 106.248C599.524 106.423 599.407 106.628 599.291 106.861H597.013C598.882 103.942 600.78 100.788 602.707 97.4014C604.634 93.9561 606.356 90.54 607.874 87.1531C609.393 83.7079 610.619 80.4378 611.553 77.3429C612.546 74.248 613.042 71.5326 613.042 69.1968C613.042 67.2698 612.546 65.9851 611.553 65.3428C610.561 64.6421 609.159 64.2917 607.349 64.2917L605.685 64.3793V63.0654H616.371Z" fill="#00D3F2"/>
<path d="M548.482 36L576.424 105.11H582.38V106.862H560.219V105.11H565.562C566.205 104.468 565.971 102.365 564.862 98.8032C563.752 95.2412 562.205 90.7156 560.219 85.2265C559.11 82.1316 557.913 78.9199 556.628 75.5914C555.343 72.2046 554.059 68.8761 552.774 65.606C551.489 62.3359 550.234 59.1826 549.007 56.1461C547.84 53.1096 546.788 50.3942 545.854 48.0001L524.131 96.7886C523.08 99.2412 522.759 101.081 523.168 102.307C523.635 103.475 524.482 104.322 525.708 104.847C526.934 105.314 528.336 105.548 529.912 105.548C531.548 105.489 533.007 105.46 534.292 105.46V106.774L521.504 107.3C520.102 107.358 519.168 107.154 518.701 106.686C518.234 106.219 518 105.606 518 104.847C518.058 104.088 518.292 103.212 518.701 102.219C519.168 101.227 519.606 100.205 520.015 99.1536L544.803 45.3723C544.336 44.2044 543.927 43.1825 543.577 42.3066C543.226 41.3723 542.934 40.584 542.701 39.9416L548.482 36ZM545.416 92.5842C545.241 90.5404 544.453 88.8178 543.051 87.4163C541.65 85.9565 539.927 85.1097 537.883 84.8762C539.927 84.6426 541.65 83.8251 543.051 82.4236C544.453 80.9637 545.241 79.2119 545.416 77.1681C545.591 79.2119 546.38 80.9637 547.781 82.4236C549.241 83.8251 550.993 84.6426 553.037 84.8762C550.993 85.1097 549.241 85.9565 547.781 87.4163C546.38 88.8178 545.591 90.5404 545.416 92.5842Z" fill="#00D3F2"/>
<path d="M142.987 101.456C142.431 98.6567 141.251 95.9874 139.573 93.7378C136.888 90.1363 133.467 88.2786 131.232 87.3809C132.109 86.127 132.836 84.7765 133.395 83.3544C133.996 81.8264 134.399 80.219 134.596 78.5705C134.619 78.3852 134.563 78.1971 134.445 78.0528C134.326 77.9085 134.152 77.8185 133.966 77.8026L122.871 76.9472L122.326 75.3371C125.89 72.6453 130.588 68.0203 133.559 60.8836C134.815 57.87 136.602 52.2241 136.152 45.3045C135.526 48.7683 133.905 53.7296 129.755 58.1361C123.827 64.4294 116.489 65.6608 113.609 65.8978C113.592 65.8991 113.575 65.8991 113.559 65.9005C113.558 65.9005 113.555 65.9005 113.554 65.9005C113.515 65.9005 113.477 65.8965 113.439 65.8899C113.428 65.8886 113.416 65.8859 113.406 65.8833C113.396 65.8806 113.387 65.8806 113.378 65.878C113.366 65.8753 113.357 65.87 113.346 65.866C113.321 65.8581 113.296 65.8488 113.272 65.8382C113.255 65.8303 113.237 65.821 113.22 65.8118C113.199 65.7998 113.179 65.7879 113.159 65.7747C113.142 65.7628 113.126 65.7508 113.112 65.7376C113.094 65.723 113.077 65.7072 113.061 65.6899C113.048 65.6754 113.033 65.6608 113.022 65.6462C113.007 65.6277 112.992 65.6078 112.979 65.588C112.969 65.5721 112.958 65.5562 112.949 65.539C112.937 65.5178 112.928 65.4966 112.918 65.4741C112.91 65.4556 112.902 65.437 112.897 65.4185C112.89 65.3973 112.887 65.3761 112.881 65.3536C112.876 65.3311 112.872 65.3099 112.869 65.2874C112.869 65.2808 112.867 65.2742 112.865 65.2676C112.865 65.253 112.865 65.2398 112.865 65.2252C112.865 65.2 112.865 65.1762 112.867 65.151C112.869 65.1272 112.873 65.1034 112.879 65.0795C112.881 65.065 112.881 65.0504 112.885 65.0358C113.477 62.7796 114.531 56.8584 111.527 50.6048C108.25 43.7845 102.357 40.9589 99.9768 40.0598C99.6206 39.9261 99.4405 39.5276 99.5756 39.1727C99.7093 38.8165 100.107 38.6365 100.463 38.7715C102.842 39.6692 108.513 42.3743 112.089 48.7087C112.146 48.7087 112.206 48.7087 112.272 48.7087C118.147 48.7537 122.387 48.522 124.876 48.0215C128.669 47.2601 132.274 44.9907 135.638 41.2594C135.633 41.229 135.627 41.1985 135.622 41.1681C135.605 41.0794 135.584 40.9734 135.559 40.853C135.993 40.2664 136.348 39.7407 136.639 39.3091C142.526 30.602 142.821 20.7787 142.033 14.0696C142 13.7928 141.804 13.5611 141.534 13.487C141.265 13.4115 140.977 13.5082 140.806 13.728C139.416 15.5247 137.876 17.1772 136.199 18.6734C130.446 24.8118 125.073 27.9154 120.189 27.9154C119.758 27.9154 119.332 27.8916 118.91 27.8426C117.929 27.7314 117.093 27.505 116.036 27.219C114.972 26.9303 113.648 26.5728 111.614 26.169C107.528 25.36 103.356 24.923 99.2115 24.8727C98.8315 24.8687 98.5269 24.5562 98.5309 24.1762C98.5362 23.7962 98.85 23.4824 99.2287 23.4957C103.456 23.5473 107.713 23.9922 111.882 24.8171C113.962 25.2289 115.311 25.5943 116.397 25.8883C117.436 26.169 118.187 26.3729 119.065 26.4735C121.689 26.7727 124.512 26.0141 127.51 24.216C125.502 22.1901 123.25 20.829 120.767 20.1537C119.604 19.8372 118.385 19.677 117.139 19.6717C116.387 19.1633 115.623 18.6747 114.847 18.2073C110.847 15.8015 105.367 12.5058 97.8278 12.0133C95.0234 11.8292 92.2045 12.0437 89.42 12.6462C89.2108 13.6763 88.9883 14.7038 88.7487 15.722C87.978 19.0018 87.034 22.2815 85.9443 25.4685C85.8463 25.7545 85.5788 25.9346 85.2928 25.9346C85.2187 25.9346 85.1432 25.9227 85.0704 25.8975C84.7102 25.7744 84.5182 25.3825 84.6414 25.0223C85.7165 21.8776 86.6473 18.6416 87.4087 15.4056C87.5967 14.6085 87.7741 13.8061 87.9423 13.0011C87.9317 13.0037 87.9211 13.0063 87.9105 13.009C88.407 10.3092 88.8056 7.55911 89.1022 4.8196C89.1379 4.48328 88.9261 4.17212 88.603 4.08209C88.2786 3.99073 87.937 4.14697 87.794 4.45283C85.9496 8.39592 83.5622 11.7683 80.6983 14.4734C79.7264 15.391 78.8115 16.1312 77.9402 16.7733C78.017 17.1044 78.0925 17.4327 78.1693 17.7637C78.8737 20.784 79.6019 23.8585 80.3302 26.9025C80.4189 27.2719 80.1912 27.644 79.8204 27.7327C79.7661 27.7459 79.7118 27.7512 79.6589 27.7512C79.3477 27.7512 79.0657 27.5381 78.9889 27.2229C78.2593 24.1762 77.5311 21.0991 76.8254 18.0776C76.5155 16.7482 76.2097 15.4228 75.9038 14.0974C75.7833 13.9663 75.6165 13.8816 75.4298 13.8723C75.3371 13.867 75.2471 13.8829 75.1636 13.9133C74.9107 14.3609 74.6698 14.8137 74.442 15.2732C73.8806 16.9693 73.2411 18.6456 72.534 20.2729C72.4546 20.5615 72.3791 20.8515 72.3103 21.1428C71.5489 24.3166 71.353 27.5804 71.729 30.843C71.7727 31.2203 71.5013 31.5619 71.1239 31.6056C71.0974 31.6083 71.0709 31.6096 71.0445 31.6096C70.6989 31.6096 70.401 31.3501 70.3612 30.9992C70.0276 28.1087 70.1242 25.217 70.6433 22.3795C70.3864 22.6628 70.1361 22.9554 69.8938 23.26C67.9527 25.6963 66.5982 28.5986 65.8541 31.9049C65.0159 30.3994 64.1685 28.9191 63.3225 27.4864C61.8368 24.9654 60.2691 22.4391 58.667 19.9802C58.5081 19.7379 58.2155 19.6188 57.9335 19.6837C57.6514 19.7512 57.4409 19.9855 57.4065 20.2742C56.9616 23.9935 56.3049 27.7327 55.4535 31.3858C54.7557 34.3769 53.9162 37.368 52.955 40.2757C52.6279 40.7245 52.3247 41.1985 52.0519 41.6858C51.7196 42.2816 51.4296 42.9039 51.1847 43.5435C47.4216 42.2035 44.314 41.3031 42.3266 40.7722C40.9191 40.3988 39.7473 40.1062 38.843 39.9062C37.503 39.6083 36.31 39.3899 34.7979 39.1118C32.8952 38.7636 30.5251 38.3306 26.6906 37.5269C24.1881 37.0052 22.3477 36.5934 20.87 36.2624C16.866 35.3686 16.0331 35.1833 14.3502 35.6136C12.2873 36.1419 10.3582 37.2568 8.61171 38.9251C8.61039 38.9264 8.60906 38.9291 8.60774 38.9304C5.88941 41.5309 4.1893 44.943 3.26907 46.7914C0.665941 52.0242 -1.72136 60.8015 1.69475 72.9061C3.99202 81.0439 8.14034 87.6351 14.0298 92.5197C13.295 92.7871 12.5455 93.0374 11.7882 93.2664C9.27375 94.0225 6.65738 94.5389 4.01055 94.8024C3.7219 94.8315 3.48225 95.038 3.41075 95.3227C3.34057 95.6047 3.45577 95.9013 3.69807 96.0616C5.38891 97.1857 7.22143 98.0715 9.14531 98.6925C9.31214 98.7454 9.48163 98.7971 9.64978 98.8474C9.33995 98.9215 9.03012 99.001 8.72293 99.0871C6.48127 99.7094 4.33495 100.657 2.34222 101.906C2.14361 102.03 2.02312 102.244 2.01782 102.477C2.01385 102.711 2.12639 102.93 2.31971 103.061C4.15488 104.309 6.11053 105.402 8.13239 106.303C8.78516 106.596 9.44588 106.869 10.1159 107.123C9.93711 107.175 9.76101 107.231 9.5849 107.29C8.97318 107.496 8.3694 107.752 7.78681 108.047C7.54053 108.173 7.39224 108.432 7.41077 108.71C7.42931 108.986 7.61203 109.224 7.87288 109.313C9.32671 109.816 10.7792 110.362 12.196 110.939C14.5436 111.896 16.8779 112.974 19.158 114.152C18.3238 114.524 17.7041 114.869 17.3771 115.051C13.6829 117.101 10.5925 120.263 8.43561 124.195C8.30982 124.425 8.32571 124.705 8.47401 124.918C8.62363 125.134 8.8805 125.244 9.13869 125.208C12.3244 124.746 15.5353 124.771 18.6826 125.279C20.7204 125.607 22.725 126.138 24.6555 126.858C23.8995 127.507 23.0838 128.086 22.2205 128.586C20.8726 129.365 19.4215 129.945 17.9107 130.309C17.6684 130.367 17.4751 130.555 17.4075 130.796C17.3427 131.038 17.4128 131.296 17.5916 131.473C18.4178 132.276 20.7151 134.153 24.1749 134.183C25.3096 134.188 26.3225 134.002 27.2004 133.714C27.1329 133.827 27.068 133.938 27.0044 134.052C26.3993 135.139 25.9637 136.309 25.7082 137.53C25.6552 137.786 25.7518 138.051 25.9558 138.212C26.0802 138.31 26.2312 138.36 26.3834 138.36C26.4827 138.36 26.5834 138.339 26.6761 138.296C30.1915 136.647 33.8976 135.401 37.691 134.589C38.8867 134.334 40.0929 134.123 41.3044 133.954C40.694 133.759 40.0889 133.553 39.4891 133.333C36.6159 132.276 33.8446 130.914 31.2494 129.285C31.0614 129.167 30.9422 128.966 30.9277 128.744C30.9144 128.523 31.0084 128.308 31.1806 128.168L38.79 121.968L21.9915 120.912C21.7902 120.899 21.6062 120.799 21.4844 120.639C21.3639 120.479 21.3188 120.272 21.3612 120.076C21.6883 118.592 22.1318 117.122 22.68 115.707C22.9832 114.923 23.3222 114.148 23.685 113.407C23.8041 113.163 23.9167 112.941 24.0306 112.726C24.1312 112.533 24.2384 112.332 24.351 112.131C24.3536 112.125 24.3576 112.12 24.3602 112.115L24.3735 112.091C24.3841 112.072 24.3933 112.054 24.4039 112.037C24.4675 111.921 24.5324 111.806 24.5999 111.691C24.6052 111.683 24.6105 111.674 24.6158 111.666L24.637 111.627C24.7575 111.418 24.8846 111.204 25.0183 110.988C25.0461 110.945 25.0673 110.91 25.0872 110.875C25.2103 110.674 25.3361 110.477 25.4659 110.279C25.54 110.164 25.6208 110.044 25.7042 109.922C25.8313 109.73 25.9716 109.531 26.1133 109.331L26.2245 109.178C26.304 109.068 26.3834 108.957 26.4695 108.847C26.5476 108.74 26.6403 108.616 26.7356 108.495C26.823 108.381 26.917 108.258 27.015 108.137C27.1077 108.021 27.203 107.901 27.3023 107.782C29.0978 105.595 31.2031 103.687 33.5705 102.102L25.9637 97.6359C25.9518 97.6319 25.9399 97.6279 25.928 97.624C25.6499 97.5299 25.3732 97.432 25.0991 97.3313C25.0236 97.3035 24.9495 97.2744 24.8753 97.2466C24.6714 97.1698 24.4675 97.093 24.2662 97.0122C24.1669 96.9725 24.0676 96.9315 23.9683 96.8917C23.7896 96.8189 23.6108 96.7448 23.4334 96.6693C23.3328 96.6256 23.2321 96.5832 23.1315 96.5382C22.9488 96.4574 22.7674 96.3754 22.586 96.2933C22.4973 96.2522 22.4086 96.2125 22.3199 96.1715C22.0842 96.0602 21.8498 95.9477 21.6168 95.8312C21.5863 95.8153 21.5545 95.802 21.5241 95.7861C21.2553 95.6511 20.9878 95.5134 20.723 95.3717C20.6648 95.3399 20.6065 95.3082 20.5482 95.2764C20.343 95.1652 20.1378 95.0526 19.9352 94.9361C19.8597 94.8937 19.7842 94.8487 19.7088 94.8063C19.5181 94.6964 19.3288 94.5839 19.1394 94.47C19.0679 94.4276 18.9977 94.384 18.9262 94.3416C18.7157 94.2131 18.5065 94.0807 18.2986 93.947C18.2549 93.9192 18.2126 93.8927 18.1689 93.8649C17.9107 93.6968 17.6538 93.526 17.3996 93.3512C17.0024 93.0784 16.6078 92.7951 16.2185 92.5024C16.0874 92.4031 15.955 92.3025 15.8253 92.2019C9.66832 87.4339 5.36111 80.8201 3.02412 72.5394C-0.271503 60.861 2.0112 52.4307 4.5137 47.4018C5.44188 45.5375 6.98972 42.4312 9.49089 40.0069C9.84575 39.8414 10.4416 39.5898 11.1711 39.3859C11.1738 39.3859 11.1764 39.3846 11.1791 39.3832C11.2413 39.366 11.3049 39.3488 11.3684 39.3329C11.3737 39.3316 11.379 39.3303 11.3843 39.3289C11.4466 39.3131 11.5101 39.2972 11.5737 39.2826C11.5816 39.2813 11.5896 39.2786 11.5962 39.2773C11.6584 39.2627 11.722 39.2495 11.7855 39.2363C11.7948 39.2349 11.8041 39.2323 11.8133 39.231C11.8756 39.2177 11.9391 39.2058 12.0027 39.1939C12.0146 39.1912 12.0252 39.1899 12.0371 39.1873C12.0993 39.1754 12.1616 39.1648 12.2251 39.1555C12.2383 39.1528 12.2516 39.1515 12.2648 39.1489C12.3271 39.1396 12.3893 39.1303 12.4528 39.1224C12.4674 39.1211 12.482 39.1184 12.4965 39.1171C12.5588 39.1091 12.6223 39.1025 12.6846 39.0959C12.7005 39.0946 12.7163 39.0933 12.7322 39.0919C12.7945 39.0866 12.8567 39.0813 12.9202 39.076C12.9375 39.076 12.9547 39.0734 12.9719 39.0721C13.0341 39.0681 13.0963 39.0655 13.1599 39.0628C13.1784 39.0628 13.197 39.0628 13.2155 39.0615C13.2777 39.0602 13.34 39.0588 13.4022 39.0575C13.4221 39.0575 13.4419 39.0575 13.4605 39.0575C13.5214 39.0575 13.5836 39.0575 13.6458 39.0602C13.667 39.0602 13.6869 39.0615 13.7081 39.0628C13.769 39.0655 13.8299 39.0681 13.8921 39.0734C13.9133 39.0747 13.9345 39.0774 13.957 39.0787C14.0179 39.084 14.0788 39.0893 14.1397 39.0959C14.1622 39.0986 14.1847 39.1012 14.2059 39.1039C14.2655 39.1118 14.3264 39.1197 14.386 39.129C14.4085 39.133 14.4323 39.137 14.4548 39.1409C14.5144 39.1515 14.574 39.1608 14.6323 39.1727C14.6561 39.178 14.6799 39.1833 14.7038 39.1886C14.762 39.2018 14.8203 39.2137 14.8786 39.2283C14.9037 39.2349 14.9275 39.2416 14.9527 39.2482C15.0096 39.2641 15.0679 39.2786 15.1248 39.2972C15.15 39.3051 15.1751 39.3144 15.199 39.3223C15.2559 39.3409 15.3115 39.3594 15.3685 39.3793C15.3936 39.3885 15.4188 39.3991 15.4453 39.4097C15.5009 39.4309 15.5565 39.4521 15.6108 39.4759C15.6372 39.4865 15.6624 39.4998 15.6876 39.5117C15.7418 39.5355 15.7961 39.5593 15.8504 39.5858C15.8756 39.5991 15.9007 39.6123 15.9272 39.6255C15.9802 39.6533 16.0331 39.6798 16.0861 39.709C16.3668 39.8678 16.6197 40.0492 16.8501 40.2518C17.8485 41.131 18.439 42.4193 19.2017 44.081C20.0332 45.8911 20.4225 47.3581 20.7574 49.1033C20.8793 49.7401 20.9945 50.4114 21.1216 51.1529C21.4287 52.951 21.8551 54.7451 22.2682 56.4797C22.5238 57.5535 22.7886 58.6657 23.0203 59.7594L23.0229 59.7687V59.7819C23.0971 60.1209 23.1765 60.4969 23.2652 60.8994C23.2758 60.9458 23.2851 60.9921 23.2957 61.0385C23.3089 61.0967 23.3222 61.1576 23.3354 61.2172C23.3632 61.343 23.391 61.4701 23.4215 61.6012C23.4268 61.625 23.4321 61.6489 23.4374 61.674C23.4996 61.9494 23.5658 62.2341 23.636 62.5294C23.6439 62.5651 23.6532 62.6009 23.6611 62.6366C23.6956 62.7783 23.73 62.9226 23.7657 63.0696C23.7816 63.1358 23.7988 63.2033 23.8147 63.2709C23.8253 63.3132 23.8346 63.3529 23.8452 63.3953C23.1474 63.2431 22.4483 63.1835 21.7531 63.2219C20.7561 63.2762 20.0782 63.4827 19.3605 63.7025C18.8733 63.8521 18.3688 64.0057 17.7028 64.1315C16.4714 64.3632 15.1301 64.2639 13.7187 63.8349C13.5148 63.7727 13.2936 63.8084 13.1202 63.9316C12.9467 64.0547 12.8395 64.2507 12.8302 64.4638C12.7733 65.7522 12.8646 70.2196 16.4595 73.6211C18.3821 75.4404 20.5257 76.2296 22.1901 76.5646C21.818 76.8943 21.4685 77.2491 21.1467 77.6278C20.1749 78.7731 19.4718 80.0959 19.0547 81.5576C18.9977 81.7563 19.0335 81.9708 19.1527 82.1402C19.2705 82.3097 19.4598 82.417 19.6664 82.4329C20.4569 82.4924 21.2394 82.65 21.9915 82.9029C22.7409 83.1558 23.4546 83.4987 24.1193 83.9277C23.9988 84.6957 23.8174 85.4517 23.579 86.1813C23.2017 87.3333 22.6826 88.4375 22.0339 89.4624C21.9094 89.6583 21.8922 89.9046 21.9902 90.1165C22.0881 90.3283 22.2841 90.4766 22.5145 90.511C23.5128 90.662 24.5231 90.6381 25.5148 90.4382C26.116 90.3177 26.6999 90.135 27.26 89.8927C27.3434 90.4554 27.5102 91.1002 27.8214 91.7715C28.0941 92.3581 28.4238 92.848 28.7548 93.2479C28.6608 93.2691 28.5682 93.2903 28.4741 93.3114C28.3179 93.3472 28.1617 93.3816 28.0041 93.4161C27.8253 93.4558 27.6479 93.4942 27.4692 93.5326C27.3169 93.5657 27.1633 93.5974 27.011 93.6292C26.8575 93.661 26.7039 93.6941 26.5503 93.7259C26.3344 93.7709 26.1544 93.9152 26.063 94.1152C26.0233 94.2025 26.0034 94.2966 26.0021 94.3906C26.0008 94.5097 26.0286 94.6302 26.0882 94.7375C26.5357 95.5385 27.0481 96.2972 27.6175 97.0096L35.2388 101.485C35.4467 101.607 35.5765 101.831 35.5791 102.072C35.5818 102.314 35.4573 102.539 35.2508 102.665C32.6225 104.283 30.3067 106.299 28.3695 108.66C28.2755 108.775 28.1842 108.888 28.0941 109.002C28.0028 109.116 27.9154 109.228 27.8306 109.338C27.7393 109.456 27.6559 109.567 27.5751 109.677C27.489 109.79 27.4175 109.889 27.3447 109.988L27.2375 110.138C27.1077 110.321 26.9753 110.509 26.8508 110.697C26.7701 110.814 26.6959 110.924 26.6257 111.034C26.5 111.225 26.3821 111.41 26.2682 111.596C26.2418 111.639 26.2153 111.682 26.1888 111.723C26.0696 111.917 25.9491 112.12 25.8326 112.321C25.8167 112.35 25.8048 112.371 25.7929 112.39C25.7307 112.497 25.6698 112.603 25.6128 112.709C25.6089 112.716 25.6049 112.722 25.6009 112.729L25.5877 112.753C25.5771 112.771 25.5665 112.791 25.5559 112.81C25.4513 112.998 25.3507 113.184 25.2553 113.37C25.1388 113.59 25.0302 113.805 24.927 114.019C24.58 114.726 24.2583 115.463 23.9683 116.211C23.542 117.312 23.1818 118.446 22.8945 119.596L40.6344 120.712C40.9178 120.729 41.1601 120.918 41.2475 121.189C41.3336 121.459 41.2475 121.754 41.0264 121.933L32.8078 128.628C35.0826 129.986 37.4871 131.134 39.9684 132.047C41.6407 132.663 43.3594 133.173 45.1005 133.577C45.1879 133.571 45.2753 133.563 45.3627 133.558C46.1201 133.637 46.8788 133.696 47.6189 133.727C49.7785 133.819 51.95 133.716 54.091 133.42C53.8381 134.04 53.6223 134.674 53.4502 135.316C53.1959 136.258 53.0251 137.224 52.9444 138.191C52.9232 138.439 53.0397 138.68 53.2476 138.82C53.3628 138.898 53.4978 138.936 53.6316 138.936C53.7388 138.936 53.8447 138.913 53.9427 138.862C56.3962 137.615 58.9398 136.594 61.5032 135.822C63.2377 135.299 65.0199 134.881 66.8008 134.578C66.9968 134.544 67.1954 134.513 67.3953 134.481C70.5135 133.998 72.064 134.096 74.8816 134.273C76.8254 134.397 79.2458 134.55 83.0896 134.57C99.7438 134.657 105.831 132.01 107.83 131.143C109.921 130.232 111.944 129.134 113.849 127.879L120.855 129.134C121.039 129.167 121.231 129.122 121.382 129.012C121.533 128.903 121.633 128.733 121.659 128.548C121.807 127.429 121.741 126.309 121.464 125.219C121.317 124.651 121.118 124.101 120.864 123.58C123.78 123.161 126.559 122.241 129.143 120.842C132.538 118.997 135.502 116.329 137.714 113.124C137.87 112.898 137.878 112.602 137.733 112.369C137.167 111.458 136.532 110.577 135.845 109.752C135.098 108.857 134.28 108.018 133.406 107.247C134.47 106.818 135.515 106.35 136.54 105.844C137.565 105.338 138.567 104.795 139.541 104.217C140.625 103.574 141.69 102.878 142.711 102.154C142.931 101.997 143.04 101.723 142.987 101.458V101.456ZM40.98 89.7523C39.2945 90.3363 37.5546 90.8937 35.8055 91.4088C34.0008 91.941 32.1485 92.4336 30.2947 92.8824C29.8936 92.5064 29.4182 91.9516 29.0647 91.1903C28.6317 90.2568 28.5496 89.3842 28.5562 88.8162C28.5589 88.5673 28.4278 88.3369 28.2133 88.2111C27.9988 88.0853 27.7327 88.0866 27.5182 88.2138C26.8098 88.6322 26.0431 88.9248 25.2394 89.0863C24.7495 89.1843 24.2556 89.236 23.7604 89.2293C24.212 88.3912 24.588 87.512 24.8846 86.6063C25.1918 85.6623 25.4129 84.6798 25.5413 83.6841C25.5744 83.4312 25.4645 83.181 25.2566 83.034C24.3881 82.4183 23.436 81.935 22.4271 81.5947C21.8419 81.3988 21.2421 81.2518 20.6343 81.1564C21.0024 80.1899 21.5254 79.3041 22.1941 78.5149C22.8005 77.7999 23.5181 77.1816 24.3245 76.6758C24.5787 76.5169 24.7005 76.2097 24.6251 75.9184C24.5496 75.6271 24.294 75.4192 23.9935 75.4033C22.8336 75.3438 19.8703 74.9518 17.4009 72.6148C14.7978 70.1521 14.2774 67.0471 14.2033 65.3828C15.5101 65.6714 16.768 65.7045 17.9531 65.4821C18.6945 65.343 19.2599 65.1696 19.7591 65.0173C20.4489 64.8068 20.9945 64.6399 21.8233 64.5949C22.6257 64.5512 23.44 64.6651 24.2503 64.9312C26.0868 71.4987 28.7959 76.6586 32.5271 80.693C35.17 83.553 38.4352 85.8993 42.2405 87.6762L40.98 89.7537V89.7523ZM103.732 70.6698C104.48 68.6108 106.785 66.4698 108.898 67.0312C110.988 67.586 111.716 70.4738 111.707 72.2203C111.691 75.2736 109.4 78.6089 107.259 78.4871C104.892 78.3521 102.531 73.98 103.733 70.6698H103.732ZM115.569 85.5285C115.296 85.943 114.996 86.3468 114.675 86.7255C114.663 86.7255 114.653 86.7255 114.641 86.7242C114.307 86.7109 113.975 86.6593 113.651 86.5759C113.38 86.507 113.116 86.4143 112.86 86.2992C113.037 85.894 113.24 85.5007 113.468 85.1234C113.641 84.8361 113.831 84.5553 114.033 84.2852C114.034 84.2852 114.034 84.2839 114.034 84.2839C114.465 84.1462 114.912 84.076 115.365 84.0707C115.696 84.0668 116.023 84.0999 116.346 84.1687C116.116 84.6374 115.854 85.0956 115.568 85.5312L115.569 85.5285ZM116.534 88.6666C116.324 88.8493 116.095 89.0029 115.851 89.1287C115.663 89.2254 115.468 89.3021 115.267 89.3644C115.152 89.3286 115.042 89.2823 114.936 89.2227C114.845 89.175 114.757 89.1194 114.674 89.0559C114.404 88.848 114.237 88.6017 114.136 88.4044C114.327 88.182 114.56 88.0032 114.814 87.8788C114.832 87.8695 114.847 87.8616 114.865 87.8549C114.992 87.7967 115.128 87.7517 115.266 87.7212C115.528 87.8854 115.782 88.0628 116.027 88.2495C116.199 88.3819 116.37 88.521 116.533 88.6666H116.534ZM113.874 83.9701L113.824 83.9873L113.791 84.031C113.568 84.3236 113.361 84.6321 113.173 84.9459C112.909 85.3829 112.675 85.845 112.477 86.319L112.415 86.4686L112.559 86.5388C112.88 86.6977 113.218 86.8235 113.563 86.9109C113.934 87.0075 114.315 87.0605 114.699 87.0724C114.708 87.124 114.716 87.177 114.726 87.2313C114.742 87.3293 114.755 87.4273 114.769 87.5239C114.753 87.5292 114.739 87.5358 114.723 87.5425C114.368 87.7027 114.048 87.9556 113.8 88.2747L113.737 88.3568L113.778 88.4494C113.885 88.6918 114.091 89.04 114.465 89.3273C114.616 89.4438 114.78 89.5392 114.953 89.612C115.043 92.1913 114.617 94.3561 114.201 95.855C113.441 95.6762 112.258 95.2949 111.021 94.4409C109.951 93.6981 109.239 92.8758 108.804 92.2826C108.72 91.6127 108.657 90.8606 108.651 90.037C108.644 89.3247 108.679 88.6639 108.736 88.0668C109.221 87.2326 109.984 86.135 111.143 85.0598C112.048 84.2217 112.939 83.6338 113.665 83.2286C113.752 83.4617 113.839 83.7026 113.925 83.9542C113.907 83.9582 113.89 83.9648 113.873 83.9701H113.874ZM111.396 105.915C111.292 106.226 111.246 106.503 111.205 106.751C111.126 107.227 111.074 107.467 110.783 107.675C110.493 107.882 110.18 107.904 110.117 107.905C109.788 107.923 109.492 107.769 108.992 107.443C108.599 107.189 108.397 106.997 108.235 106.825C108.333 106.115 107.961 105.427 107.312 105.174C106.825 104.981 106.252 105.081 105.824 105.42C105.648 105.351 105.469 105.252 105.249 105.075C104.958 104.84 104.52 104.487 104.504 104.048C104.488 103.592 104.933 103.205 105.172 102.996C105.729 102.512 106.358 102.27 108.786 101.885C111.294 101.485 111.919 101.53 112.424 101.858C112.589 101.966 113.019 102.252 113.098 102.696C113.104 102.723 113.11 102.757 113.11 102.81C113.11 102.93 113.076 103.135 112.91 103.503C112.744 103.874 112.586 104.097 112.43 104.287C112.211 104.296 111.863 104.36 111.594 104.653C111.291 104.986 111.217 105.485 111.398 105.914L111.396 105.915ZM98.474 64.0719C100.391 66.0832 101.958 68.399 103.128 70.9558C103.287 71.3014 103.135 71.7105 102.789 71.8694C102.696 71.9118 102.598 71.9316 102.503 71.9316C102.242 71.9316 101.992 71.782 101.877 71.5291C100.77 69.1113 99.2909 66.9227 97.4783 65.0213C93.9682 61.339 89.9536 59.5436 87.2048 58.6843C86.842 58.5704 86.6394 58.1851 86.7519 57.821C86.8658 57.4582 87.2511 57.2556 87.6152 57.3681C91.7808 58.6684 95.5358 60.9855 98.4753 64.0693L98.474 64.0719ZM90.1866 79.9701C88.2256 82.5547 82.3653 81.8463 79.5847 78.6447C78.0316 76.8572 76.9127 73.686 78.258 71.6536C80.0058 69.0134 85.3246 69.1829 88.2548 71.7926C90.609 73.8899 91.7742 77.8767 90.1866 79.9688V79.9701ZM76.685 45.2727C76.8479 44.9298 77.2583 44.7828 77.6026 44.9457C80.3845 46.2658 83.0326 47.8864 85.4702 49.7613C87.5331 51.3489 89.461 53.1298 91.2101 55.0629C92.8731 52.7405 94.0238 50.1043 94.556 47.3886C95.9887 40.0757 92.7023 34.1439 91.2233 31.9327C91.0115 31.6162 91.0962 31.1885 91.4127 30.9767C91.7291 30.7648 92.1568 30.8496 92.3687 31.166C93.943 33.5189 97.4399 39.8361 95.9092 47.6521C95.2843 50.8418 93.8635 53.9269 91.8006 56.5737C91.6735 56.7365 91.4815 56.8332 91.2763 56.8385C91.2697 56.8385 91.2644 56.8385 91.2578 56.8385C91.0592 56.8385 90.8685 56.7524 90.7374 56.6015C88.9022 54.4896 86.8473 52.5538 84.6321 50.8497C82.2713 49.0331 79.7079 47.4641 77.0134 46.1863C76.6704 46.0235 76.5235 45.613 76.6863 45.2687L76.685 45.2727ZM53.9824 53.2238C54.0208 52.9404 54.2314 52.7114 54.5094 52.6465C56.9656 52.0771 59.4072 51.3383 61.768 50.4485C63.8997 49.6448 66.0064 48.7047 68.0269 47.6521C68.3645 47.476 68.7803 47.6071 68.9564 47.9447C69.1325 48.2823 69.0014 48.6981 68.6638 48.8742C66.5942 49.952 64.4373 50.9159 62.2539 51.7382C60.3579 52.4518 58.4115 53.0715 56.4452 53.5879C57.8461 54.5174 59.1159 55.619 60.2347 56.8756C61.3668 58.148 62.3307 59.5674 63.0987 61.0954C63.2695 61.4357 63.1331 61.8488 62.7928 62.0196C62.6935 62.0699 62.5876 62.0938 62.4843 62.0938C62.2327 62.0938 61.9891 61.9547 61.8686 61.7137C61.1549 60.293 60.2585 58.9729 59.2072 57.7918C57.8209 56.2334 56.1817 54.9318 54.3373 53.9229C54.087 53.7852 53.9467 53.5085 53.9851 53.2251L53.9824 53.2238ZM66.7372 96.3687C66.6565 96.3674 66.5704 96.3621 66.479 96.3581C66.0726 96.3396 65.6674 96.2774 65.2741 96.1741C65.5721 95.8126 65.9057 95.4856 66.2751 95.2009C66.3506 95.1426 66.4221 95.087 66.487 95.0394C66.8061 94.7997 67.0246 94.6673 67.3132 94.617C67.9011 94.515 68.4321 94.8156 68.7459 95.0513C68.5605 95.4617 68.1858 96.0642 67.5449 96.284C67.2907 96.3701 67.0444 96.3793 66.7372 96.3687ZM64.0692 91.7676C64.6863 91.5213 65.3245 91.3214 65.9706 91.1731C66.0911 91.1453 66.2129 91.1201 66.336 91.0936C66.7505 91.0115 67.1729 90.9493 67.5926 90.9056C67.9885 91.1307 68.3764 91.3809 68.7445 91.6497C69.0689 91.8854 69.3841 92.141 69.6833 92.4098C69.3285 92.6971 68.9365 92.9301 68.5128 93.1036C68.0732 93.2823 67.6098 93.3935 67.1371 93.4306C66.8564 93.3353 66.577 93.228 66.3029 93.1062C66.0792 93.0096 65.8567 92.9036 65.6422 92.7898C65.0888 92.4985 64.5631 92.1555 64.0706 91.7663L64.0692 91.7676ZM79.6695 96.3039C79.4815 98.715 78.8459 100.651 78.2951 101.959C76.8796 102.095 75.2351 102.162 73.4106 102.072C71.6827 101.985 70.1335 101.775 68.7935 101.522C68.1514 100.438 67.3423 98.8117 66.8193 96.7156C66.8498 96.717 66.8816 96.717 66.912 96.717C67.1702 96.717 67.4059 96.6945 67.6548 96.6097C68.4916 96.3237 68.9286 95.5174 69.1153 95.0632L69.1629 94.944L69.065 94.8646C68.7273 94.5852 68.0441 94.1416 67.2536 94.2767C66.9425 94.3297 66.6975 94.4607 66.4327 94.6501C66.3811 94.2502 66.3466 93.8636 66.3241 93.4889C66.5651 93.5908 66.8114 93.6835 67.059 93.7656L67.0921 93.7762H67.1265C67.6495 93.7365 68.1593 93.616 68.6426 93.42C69.1629 93.2082 69.6383 92.9116 70.0593 92.5422L70.2023 92.4164L70.0607 92.2853C69.7098 91.9596 69.3337 91.6511 68.9484 91.369C68.5539 91.0817 68.1394 90.8142 67.7157 90.5772L67.6694 90.5508L67.6164 90.556C67.198 90.5958 66.7809 90.6554 66.3678 90.7374C66.4089 90.2806 66.4645 89.8689 66.5227 89.5114C68.3036 89.175 70.3904 88.8996 72.7313 88.8109C74.9756 88.7249 76.9988 88.8281 78.7453 89.0109C79.2617 90.5335 79.9158 93.1075 79.6695 96.3025V96.3039ZM86.025 92.3634C85.837 92.0562 85.6291 91.7676 85.4014 91.4948C84.7764 90.7507 82.8751 88.4865 74.8631 88.4296C70.1136 88.3965 65.3086 89.1419 60.5671 90.6461L60.379 90.707L60.3353 90.9003C60.0599 92.1396 59.901 94.0344 60.7114 96.0258C61.2887 97.4399 62.193 98.4992 63.1755 99.2896C62.6247 98.9745 62.0659 98.5972 61.5191 98.1456C58.757 95.8616 57.805 92.9804 57.482 91.4657L57.4714 91.418L55.8838 88.4667C59.4058 87.6643 62.9769 87.0684 66.5055 86.6924C72.4122 86.0674 80.2785 85.849 84.2071 88.37C85.2769 89.0572 86.2594 89.8887 87.1359 90.854H85.9006L86.0211 92.3661L86.025 92.3634ZM116.872 118.408C116.15 120.287 115.788 121.228 114.885 122.193C114.024 123.114 113.138 123.561 112.428 123.921C111.776 124.252 110.636 124.734 108.277 125.118C105.513 125.567 103.266 125.525 102.428 125.485C100.693 125.403 98.0741 125.279 95.0512 124.051C94.1747 123.695 92.852 123.157 91.4193 121.999C90.503 121.259 89.6954 120.39 89.0148 119.417C92.6759 119.516 96.3515 119.234 99.945 118.573C103.112 117.991 106.242 117.113 109.253 115.96C109.298 115.943 109.333 115.908 109.351 115.863C109.619 115.189 109.848 114.495 110.032 113.799C110.135 113.41 110.225 113.018 110.301 112.62C110.319 112.929 110.34 113.237 110.368 113.545C110.426 114.237 110.511 114.936 110.616 115.622C110.626 115.695 110.681 115.752 110.752 115.765C112.251 116.07 113.772 116.138 115.276 115.97C116.131 115.874 116.982 115.7 117.809 115.453C117.553 116.462 117.237 117.456 116.871 118.411L116.872 118.408ZM122.36 90.1072C122.118 90.7891 121.786 91.4458 121.375 92.0615C121.672 91.2472 121.89 90.4104 122.029 89.5537C122.585 86.1456 121.755 83.2803 120.959 81.4756L120.869 81.273H120.647C120.606 81.269 120.565 81.269 120.525 81.269C120.181 81.269 119.833 81.2809 119.492 81.3047C118.38 81.3802 115.421 81.5815 112.567 83.4908C111.074 84.4891 109.812 85.7669 108.808 87.2949C109.202 85.7589 109.868 84.3779 110.792 83.181C114.322 78.6169 120.278 78.4725 122.058 78.5401L122.172 80.1885L122.863 86.3918C122.955 87.6643 122.784 88.9168 122.36 90.1085V90.1072ZM128.75 57.192C133.158 52.5128 134.546 47.1688 134.973 43.9182C131.886 46.8523 128.599 48.6809 125.146 49.3734C122.644 49.8752 118.497 50.1162 112.804 50.091C115.6 55.9726 115.042 61.5628 114.442 64.4241C117.603 64.0163 123.715 62.5373 128.75 57.192Z" fill="white"/>
<path d="M100.607 121.189C100.638 121.219 100.681 121.235 100.724 121.235C100.736 121.235 100.746 121.235 100.758 121.231C100.814 121.221 100.857 121.185 100.883 121.133C101.067 120.723 101.216 120.293 101.328 119.86C101.471 119.289 101.55 118.702 101.561 118.113C101.562 118.018 101.486 117.94 101.392 117.937C101.294 117.936 101.219 118.011 101.216 118.105C101.216 118.117 101.216 118.129 101.215 118.141L99.0554 118.547C99.0488 118.532 99.0395 118.518 99.0329 118.502C98.9892 118.418 98.8859 118.383 98.8025 118.427C98.7165 118.471 98.682 118.574 98.7244 118.657C98.9945 119.194 99.3163 119.702 99.6857 120.175C99.9664 120.534 100.276 120.874 100.609 121.188L100.607 121.189Z" fill="white"/>
<path d="M112.862 120.063C112.799 120.053 112.74 120.075 112.7 120.124C112.344 120.558 112 121.01 111.674 121.464C111.283 122.01 110.911 122.579 110.562 123.157L110.299 122.634C110.273 122.583 110.224 122.547 110.166 122.539C110.109 122.534 110.051 122.556 110.015 122.601L109.5 123.228L109.116 123.146C109.065 123.135 109.014 123.147 108.974 123.179L108.537 123.516L108.033 123.349C107.981 123.332 107.925 123.339 107.883 123.368L107.349 123.724L106.72 123.609C106.685 123.602 106.646 123.608 106.612 123.625L105.817 124.022L105.142 123.8C105.096 123.786 105.047 123.79 105.004 123.813L104.511 124.084L103.555 123.372C103.486 123.322 103.389 123.328 103.33 123.391L102.624 124.116C102.593 124.147 102.576 124.186 102.576 124.23L102.546 125.153C102.477 124.603 102.329 124.07 102.106 123.56C101.839 122.951 101.472 122.396 101.016 121.91C100.981 121.87 100.925 121.849 100.872 121.857C100.816 121.864 100.77 121.896 100.742 121.943C100.466 122.427 100.25 122.944 100.101 123.479C99.9201 124.127 99.8393 124.795 99.8591 125.468C99.8605 125.561 99.9386 125.635 100.031 125.635H100.035C100.128 125.633 100.202 125.557 100.203 125.467L102.236 125.517C102.236 125.517 102.237 125.528 102.237 125.533C102.244 125.624 102.319 125.693 102.409 125.693H102.421C102.465 125.689 102.502 125.672 102.53 125.643V125.676C102.526 125.722 102.543 125.769 102.576 125.802C102.609 125.836 102.654 125.855 102.701 125.855C104.516 125.845 106.343 125.693 108.129 125.396C109.136 125.23 110.146 125.014 111.132 124.757C111.161 124.748 111.188 124.734 111.206 124.713C111.212 124.712 111.217 124.709 111.222 124.708L112.883 124.153C112.93 124.136 112.97 124.098 112.99 124.05C113.214 123.458 113.334 122.837 113.346 122.207C113.359 121.512 113.243 120.826 112.998 120.172C112.975 120.115 112.925 120.074 112.866 120.063H112.862Z" fill="white"/>
<path d="M115.044 115.748C115.011 115.707 114.962 115.685 114.91 115.685H112.769C112.679 115.685 112.603 115.753 112.597 115.841C112.538 116.516 112.553 117.197 112.64 117.864C112.705 118.372 112.813 118.88 112.961 119.371C112.978 119.432 113.026 119.475 113.087 119.49C113.099 119.494 113.113 119.495 113.125 119.495C113.173 119.495 113.218 119.474 113.252 119.44C113.632 119.029 113.964 118.579 114.244 118.097C114.638 117.414 114.919 116.671 115.079 115.891C115.09 115.841 115.078 115.788 115.045 115.748H115.044Z" fill="white"/>
<path d="M462.028 106.8V80.6652L438.867 36H455.489L469.512 64.0578H469.827L483.929 36H500L476.839 80.4904V106.8H462.028Z" fill="white"/>
<path d="M378.03 106.8V36H392.84V63.2711H393.156L418.996 36H437.115L409.699 64.5822L437.588 106.8H420.098L399.3 74.8089L392.84 80.5778V106.8H378.03Z" fill="white"/>
<path d="M367.782 106.8H320.514V36H367.782V50.3348H335.324V63.0963H364.946V77.0815H335.324V92.4652H367.782V106.8Z" fill="white"/>
<path d="M248.351 106.8L275.215 36H290.184L316.733 106.8H301.528L295.462 90.717H269.228L263.083 106.8H248.351ZM273.876 77.0815H291.523L282.936 53.6563H282.542L273.876 77.0815Z" fill="white"/>
<path d="M179 106.8L202.949 69.9141L180.733 36H197.75L211.851 58.2889H212.166L226.268 36H242.812L220.596 69.7393L244.545 106.8H227.213L211.694 82.2385H211.379L195.859 106.8H179Z" fill="white"/>
</g>
<defs>
<clipPath id="clip0_1558_724">
<rect width="818" height="143" fill="white"/>
</clipPath>
</defs>
</svg>
