<svg width="1185" height="283" viewBox="0 0 1185 283" fill="none" xmlns="http://www.w3.org/2000/svg">
<path fill-rule="evenodd" clip-rule="evenodd" d="M183.788 137.808C152.496 137.125 127.107 112.488 125.229 81.5044C125.155 81.5028 125.081 81.5013 125.007 81.5C123.104 112.925 97.0162 137.822 65.113 137.822C64.7414 137.822 64.3706 137.819 64.0006 137.812L64 137.823C97.0885 137.883 123.893 164.725 123.893 197.828C123.893 199.061 123.856 200.285 123.783 201.5L123.895 201.5L124.004 201.5C123.93 200.285 123.893 199.061 123.893 197.828C123.893 164.724 150.699 137.882 183.789 137.823C183.789 137.818 183.788 137.813 183.788 137.808Z" fill="#EFBC8E"/>
<path d="M274.335 94.9091L293.107 126.636H293.835L312.698 94.9091H334.925L306.516 141.455L335.562 188H312.925L293.835 156.227H293.107L274.016 188H251.471L280.607 141.455L252.016 94.9091H274.335ZM366.925 189.318C362.471 189.318 358.501 188.545 355.016 187C351.531 185.424 348.774 183.106 346.744 180.045C344.744 176.955 343.744 173.106 343.744 168.5C343.744 164.621 344.456 161.364 345.88 158.727C347.304 156.091 349.244 153.97 351.698 152.364C354.153 150.758 356.941 149.545 360.062 148.727C363.213 147.909 366.516 147.333 369.971 147C374.031 146.576 377.304 146.182 379.789 145.818C382.274 145.424 384.077 144.848 385.198 144.091C386.319 143.333 386.88 142.212 386.88 140.727V140.455C386.88 137.576 385.971 135.348 384.153 133.773C382.365 132.197 379.819 131.409 376.516 131.409C373.031 131.409 370.259 132.182 368.198 133.727C366.138 135.242 364.774 137.152 364.107 139.455L346.198 138C347.107 133.758 348.895 130.091 351.562 127C354.228 123.879 357.668 121.485 361.88 119.818C366.122 118.121 371.031 117.273 376.607 117.273C380.486 117.273 384.198 117.727 387.744 118.636C391.319 119.545 394.486 120.955 397.244 122.864C400.031 124.773 402.228 127.227 403.835 130.227C405.441 133.197 406.244 136.758 406.244 140.909V188H387.88V178.318H387.335C386.213 180.5 384.713 182.424 382.835 184.091C380.956 185.727 378.698 187.015 376.062 187.955C373.425 188.864 370.38 189.318 366.925 189.318ZM372.471 175.955C375.319 175.955 377.835 175.394 380.016 174.273C382.198 173.121 383.91 171.576 385.153 169.636C386.395 167.697 387.016 165.5 387.016 163.045V155.636C386.41 156.03 385.577 156.394 384.516 156.727C383.486 157.03 382.319 157.318 381.016 157.591C379.713 157.833 378.41 158.061 377.107 158.273C375.804 158.455 374.622 158.621 373.562 158.773C371.289 159.106 369.304 159.636 367.607 160.364C365.91 161.091 364.592 162.076 363.653 163.318C362.713 164.53 362.244 166.045 362.244 167.864C362.244 170.5 363.198 172.515 365.107 173.909C367.047 175.273 369.501 175.955 372.471 175.955ZM453.085 189.364C445.903 189.364 439.721 187.909 434.539 185C429.388 182.061 425.418 177.909 422.63 172.545C419.842 167.152 418.448 160.773 418.448 153.409C418.448 146.227 419.842 139.924 422.63 134.5C425.418 129.076 429.342 124.848 434.403 121.818C439.494 118.788 445.463 117.273 452.312 117.273C456.918 117.273 461.206 118.015 465.175 119.5C469.175 120.955 472.66 123.152 475.63 126.091C478.63 129.03 480.963 132.727 482.63 137.182C484.297 141.606 485.13 146.788 485.13 152.727V158.045H426.175V146.045H466.903C466.903 143.258 466.297 140.788 465.085 138.636C463.872 136.485 462.191 134.803 460.039 133.591C457.918 132.348 455.448 131.727 452.63 131.727C449.691 131.727 447.085 132.409 444.812 133.773C442.569 135.106 440.812 136.909 439.539 139.182C438.266 141.424 437.615 143.924 437.585 146.682V158.091C437.585 161.545 438.221 164.53 439.494 167.045C440.797 169.561 442.63 171.5 444.994 172.864C447.357 174.227 450.16 174.909 453.403 174.909C455.554 174.909 457.524 174.606 459.312 174C461.1 173.394 462.63 172.485 463.903 171.273C465.175 170.061 466.145 168.576 466.812 166.818L484.721 168C483.812 172.303 481.948 176.061 479.13 179.273C476.342 182.455 472.736 184.939 468.312 186.727C463.918 188.485 458.842 189.364 453.085 189.364ZM515.312 167.909L515.357 144.682H518.175L540.539 118.182H562.766L532.721 153.273H528.13L515.312 167.909ZM497.766 188V94.9091H517.13V188H497.766ZM541.403 188L520.857 157.591L533.766 143.909L564.085 188H541.403ZM585.346 214.182C582.891 214.182 580.588 213.985 578.437 213.591C576.316 213.227 574.558 212.758 573.164 212.182L577.528 197.727C579.8 198.424 581.846 198.803 583.664 198.864C585.513 198.924 587.103 198.5 588.437 197.591C589.8 196.682 590.906 195.136 591.755 192.955L592.891 190L567.846 118.182H588.21L602.664 169.455H603.391L617.982 118.182H638.482L611.346 195.545C610.043 199.303 608.27 202.576 606.028 205.364C603.816 208.182 601.013 210.348 597.619 211.864C594.225 213.409 590.134 214.182 585.346 214.182Z" fill="white"/>
<path d="M724.453 82.948L765.285 183.94H773.989V186.5H741.605V183.94H749.413C750.352 183.001 750.01 179.929 748.389 174.724C746.768 169.519 744.506 162.905 741.605 154.884C739.984 150.361 738.234 145.668 736.357 140.804C734.48 135.855 732.602 130.991 730.725 126.212C728.848 121.433 727.013 116.825 725.221 112.388C723.514 107.951 721.978 103.983 720.613 100.484L688.869 171.78C687.333 175.364 686.864 178.052 687.461 179.844C688.144 181.551 689.381 182.788 691.173 183.556C692.965 184.239 695.013 184.58 697.317 184.58C699.706 184.495 701.84 184.452 703.717 184.452V186.372L685.029 187.14C682.981 187.225 681.616 186.927 680.933 186.244C680.25 185.561 679.909 184.665 679.909 183.556C679.994 182.447 680.336 181.167 680.933 179.716C681.616 178.265 682.256 176.772 682.853 175.236L719.077 96.644C718.394 94.9373 717.797 93.444 717.285 92.164C716.773 90.7987 716.346 89.6467 716.005 88.708L724.453 82.948ZM719.973 165.636C719.717 162.649 718.565 160.132 716.517 158.084C714.469 155.951 711.952 154.713 708.965 154.372C711.952 154.031 714.469 152.836 716.517 150.788C718.565 148.655 719.717 146.095 719.973 143.108C720.229 146.095 721.381 148.655 723.429 150.788C725.562 152.836 728.122 154.031 731.109 154.372C728.122 154.713 725.562 155.951 723.429 158.084C721.381 160.132 720.229 162.649 719.973 165.636ZM788.333 186.5L762.733 122.5H773.101L798.701 186.5H788.333ZM823.661 122.5C824.429 122.5 824.984 122.756 825.325 123.268C825.752 123.78 825.965 124.377 825.965 125.06C825.965 125.743 825.837 126.767 825.581 128.132C825.325 129.497 824.984 130.948 824.557 132.484C824.216 134.02 823.832 135.471 823.405 136.836C822.978 138.201 822.637 139.225 822.381 139.908C821.357 142.553 820.034 145.625 818.413 149.124C816.877 152.537 815.128 156.207 813.165 160.132C811.288 163.972 809.197 168.025 806.893 172.292C804.589 176.473 802.2 180.612 799.725 184.708C799.554 185.049 799.384 185.348 799.213 185.604C799.042 185.86 798.872 186.159 798.701 186.5H795.373C798.104 182.233 800.877 177.625 803.693 172.676C806.509 167.641 809.026 162.649 811.245 157.7C813.464 152.665 815.256 147.887 816.621 143.364C818.072 138.841 818.797 134.873 818.797 131.46C818.797 128.644 818.072 126.767 816.621 125.828C815.17 124.804 813.122 124.292 810.477 124.292L808.045 124.42V122.5H823.661ZM835.961 130.82C840.228 127.577 844.622 125.145 849.145 123.524C853.753 121.817 858.745 120.964 864.121 120.964C866.425 120.964 868.772 121.22 871.161 121.732C873.636 122.159 875.854 122.969 877.817 124.164C879.865 125.273 881.486 126.767 882.681 128.644C883.961 130.521 884.601 132.868 884.601 135.684V136.452V186.628H874.233V172.036C872.185 176.9 869.156 180.783 865.145 183.684C861.134 186.5 855.929 187.908 849.529 187.908C846.628 187.908 843.769 187.481 840.953 186.628C838.137 185.775 835.62 184.537 833.401 182.916C831.268 181.295 829.518 179.289 828.153 176.9C826.873 174.425 826.233 171.609 826.233 168.452C826.233 164.953 826.916 162.009 828.281 159.62C829.646 157.231 831.438 155.268 833.657 153.732C835.876 152.111 838.436 150.873 841.337 150.02C844.238 149.081 847.225 148.356 850.297 147.844C853.369 147.332 856.398 146.991 859.385 146.82C862.372 146.564 865.102 146.351 867.577 146.18C869.113 146.009 870.734 145.796 872.441 145.54C874.233 145.199 875.812 144.687 877.177 144.004C878.628 143.321 879.822 142.383 880.761 141.188C881.7 139.908 882.169 138.244 882.169 136.196C882.169 134.319 881.742 132.697 880.889 131.332C880.121 129.881 879.054 128.729 877.689 127.876C876.409 126.937 874.916 126.255 873.209 125.828C871.502 125.316 869.796 125.06 868.089 125.06C862.713 125.06 857.934 126.34 853.753 128.9C849.572 131.46 845.945 134.831 842.873 139.012L835.961 130.82ZM874.105 147.588C871.289 148.271 868.302 148.697 865.145 148.868C862.073 148.953 859.3 149.167 856.825 149.508C854.094 149.849 851.534 150.489 849.145 151.428C846.756 152.281 844.665 153.476 842.873 155.012C841.081 156.548 839.673 158.468 838.649 160.772C837.625 162.991 837.113 165.593 837.113 168.58C837.113 173.188 838.478 177.028 841.209 180.1C844.025 183.172 847.78 184.708 852.473 184.708C855.716 184.708 858.532 184.196 860.921 183.172C863.31 182.063 865.358 180.569 867.065 178.692C868.772 176.815 870.18 174.681 871.289 172.292C872.484 169.817 873.465 167.257 874.233 164.612L874.105 147.588ZM891.328 122.756C893.973 122.756 896.32 121.817 898.368 119.94C900.416 118.063 902.123 115.759 903.488 113.028C904.939 110.297 906.005 107.439 906.688 104.452C907.456 101.465 907.84 98.9053 907.84 96.772L910.4 96.9V167.3C910.4 169.348 910.571 171.439 910.912 173.572C911.253 175.62 911.893 177.54 912.832 179.332C913.771 181.039 915.008 182.447 916.544 183.556C918.165 184.665 920.256 185.263 922.816 185.348C924.523 185.433 926.272 185.22 928.064 184.708C929.856 184.111 931.52 183.343 933.056 182.404C934.592 181.465 935.915 180.356 937.024 179.076C938.219 177.711 938.987 176.26 939.328 174.724L940.736 177.668C938.176 181.508 935.317 184.153 932.16 185.604C929.003 187.055 924.992 187.737 920.128 187.652C917.056 187.652 914.283 187.14 911.808 186.116C909.333 185.007 907.2 183.556 905.408 181.764C903.701 179.887 902.379 177.668 901.44 175.108C900.501 172.548 900.032 169.775 900.032 166.788V124.932H891.328V122.756ZM901.952 122.5H929.728V124.932H901.952V122.5ZM950.336 130.82C954.603 127.577 958.997 125.145 963.52 123.524C968.128 121.817 973.12 120.964 978.496 120.964C980.8 120.964 983.147 121.22 985.536 121.732C988.011 122.159 990.229 122.969 992.192 124.164C994.24 125.273 995.861 126.767 997.056 128.644C998.336 130.521 998.976 132.868 998.976 135.684V136.452V186.628H988.608V172.036C986.56 176.9 983.531 180.783 979.52 183.684C975.509 186.5 970.304 187.908 963.904 187.908C961.003 187.908 958.144 187.481 955.328 186.628C952.512 185.775 949.995 184.537 947.776 182.916C945.643 181.295 943.893 179.289 942.528 176.9C941.248 174.425 940.608 171.609 940.608 168.452C940.608 164.953 941.291 162.009 942.656 159.62C944.021 157.231 945.813 155.268 948.032 153.732C950.251 152.111 952.811 150.873 955.712 150.02C958.613 149.081 961.6 148.356 964.672 147.844C967.744 147.332 970.773 146.991 973.76 146.82C976.747 146.564 979.477 146.351 981.952 146.18C983.488 146.009 985.109 145.796 986.816 145.54C988.608 145.199 990.187 144.687 991.552 144.004C993.003 143.321 994.197 142.383 995.136 141.188C996.075 139.908 996.544 138.244 996.544 136.196C996.544 134.319 996.117 132.697 995.264 131.332C994.496 129.881 993.429 128.729 992.064 127.876C990.784 126.937 989.291 126.255 987.584 125.828C985.877 125.316 984.171 125.06 982.464 125.06C977.088 125.06 972.309 126.34 968.128 128.9C963.947 131.46 960.32 134.831 957.248 139.012L950.336 130.82ZM988.48 147.588C985.664 148.271 982.677 148.697 979.52 148.868C976.448 148.953 973.675 149.167 971.2 149.508C968.469 149.849 965.909 150.489 963.52 151.428C961.131 152.281 959.04 153.476 957.248 155.012C955.456 156.548 954.048 158.468 953.024 160.772C952 162.991 951.488 165.593 951.488 168.58C951.488 173.188 952.853 177.028 955.584 180.1C958.4 183.172 962.155 184.708 966.848 184.708C970.091 184.708 972.907 184.196 975.296 183.172C977.685 182.063 979.733 180.569 981.44 178.692C983.147 176.815 984.555 174.681 985.664 172.292C986.859 169.817 987.84 167.257 988.608 164.612L988.48 147.588ZM1009.16 122.5H1019.53V144.772C1020.21 141.529 1021.11 138.457 1022.22 135.556C1023.32 132.655 1024.69 130.137 1026.31 128.004C1027.93 125.785 1029.85 124.079 1032.07 122.884C1034.38 121.604 1036.98 120.964 1039.88 120.964C1043.46 120.964 1046.71 121.689 1049.61 123.14C1052.59 124.505 1055.07 126.425 1057.03 128.9L1050.5 145.796L1048.84 144.9C1049.35 142.937 1049.61 140.932 1049.61 138.884C1049.61 137.007 1049.35 135.129 1048.84 133.252C1048.41 131.375 1047.73 129.711 1046.79 128.26C1045.85 126.809 1044.62 125.657 1043.08 124.804C1041.54 123.865 1039.71 123.481 1037.58 123.652C1035.02 123.737 1032.8 124.804 1030.92 126.852C1029.04 128.9 1027.42 131.545 1026.06 134.788C1024.78 138.031 1023.71 141.657 1022.86 145.668C1022.09 149.679 1021.45 153.775 1020.94 157.956C1020.42 162.137 1020.08 166.191 1019.91 170.116C1019.74 173.956 1019.61 177.369 1019.53 180.356V186.5H1009.29L1009.16 122.5ZM1068.79 152.964L1070.33 153.988C1069.39 155.609 1068.71 157.529 1068.28 159.748C1067.94 161.881 1067.81 164.057 1067.9 166.276C1067.98 168.495 1068.28 170.585 1068.79 172.548C1069.3 174.511 1069.94 176.089 1070.71 177.284C1072.59 180.185 1075.23 182.276 1078.65 183.556C1082.15 184.836 1085.82 185.476 1089.66 185.476C1091.96 185.476 1094.14 185.263 1096.18 184.836C1098.32 184.324 1100.19 183.556 1101.82 182.532C1103.44 181.423 1104.72 180.015 1105.66 178.308C1106.68 176.601 1107.23 174.511 1107.32 172.036C1107.4 168.793 1106.42 166.148 1104.38 164.1C1102.41 161.967 1099.9 160.175 1096.82 158.724C1093.84 157.273 1090.55 155.993 1086.97 154.884C1083.38 153.689 1080.06 152.367 1076.98 150.916C1074 149.465 1071.48 147.716 1069.43 145.668C1067.47 143.535 1066.53 140.847 1066.62 137.604C1066.62 134.361 1067.38 131.673 1068.92 129.54C1070.46 127.407 1072.42 125.743 1074.81 124.548C1077.28 123.268 1079.97 122.415 1082.87 121.988C1085.86 121.476 1088.8 121.22 1091.7 121.22C1093.92 121.22 1096.18 121.476 1098.49 121.988C1100.79 122.5 1102.92 123.268 1104.89 124.292C1106.94 125.231 1108.73 126.468 1110.26 128.004C1111.8 129.455 1112.91 131.204 1113.59 133.252L1104.38 139.908L1103.35 138.5C1104.2 137.817 1104.93 137.049 1105.53 136.196C1106.12 135.343 1106.42 134.361 1106.42 133.252C1106.42 131.716 1106.04 130.351 1105.27 129.156C1104.59 127.876 1103.56 126.809 1102.2 125.956C1100.92 125.103 1099.43 124.463 1097.72 124.036C1096.01 123.524 1094.22 123.268 1092.34 123.268C1090.47 123.268 1088.59 123.481 1086.71 123.908C1084.83 124.335 1083.13 125.017 1081.59 125.956C1080.14 126.895 1078.95 128.089 1078.01 129.54C1077.15 130.991 1076.81 132.74 1076.98 134.788C1077.15 137.177 1078.26 139.14 1080.31 140.676C1082.36 142.212 1084.88 143.62 1087.86 144.9C1090.85 146.095 1094.05 147.289 1097.46 148.484C1100.88 149.679 1104.03 151.129 1106.94 152.836C1109.84 154.457 1112.23 156.463 1114.1 158.852C1116.07 161.156 1117.05 164.1 1117.05 167.684C1117.05 171.268 1116.24 174.34 1114.62 176.9C1113.08 179.46 1111.03 181.551 1108.47 183.172C1106 184.793 1103.18 185.988 1100.02 186.756C1096.87 187.524 1093.62 187.908 1090.3 187.908C1082.36 187.908 1075.83 186.116 1070.71 182.532C1065.59 178.863 1062.31 173.657 1060.86 166.916L1068.79 152.964Z" fill="#F3925B"/>
</svg>
